HIERARCHY
ROOT mixamorig_Hips
{
	OFFSET 0.000000 0.890477 -0.000138
	CHANNELS 6 Xposition Yposition Zposition Xrotation Yrotation Zrotation
	JOINT mixamorig_RightUpLeg
	{
		OFFSET -8.224193 -6.337456 -1.245509
		CHANNELS 3 Xrotation Yrotation Zrotation
		JOINT mixamorig_RightLeg
		{
			OFFSET -0.853740 -41.205795 -1.113445
			CHANNELS 3 Xrotation Yrotation Zrotation
			JOINT mixamorig_RightFoot
			{
				OFFSET 0.305346 -37.074059 5.547482
				CHANNELS 3 Xrotation Yrotation Zrotation
				JOINT mixamorig_RightToeBase
				{
					OFFSET 0.275999 -7.386046 -10.162342
					CHANNELS 3 Xrotation Yrotation Zrotation
					End Site
					{
						OFFSET 1.527623 -0.641087 -9.418583
					}
				}
			}
		}
	}
	JOINT mixamorig_LeftUpLeg
	{
		OFFSET 8.238425 -6.144493 -1.530489
		CHANNELS 3 Xrotation Yrotation Zrotation
		JOINT mixamorig_LeftLeg
		{
			OFFSET 0.999181 -40.793915 0.038145
			CHANNELS 3 Xrotation Yrotation Zrotation
			JOINT mixamorig_LeftFoot
			{
				OFFSET -1.148513 -38.134243 4.265069
				CHANNELS 3 Xrotation Yrotation Zrotation
				JOINT mixamorig_LeftToeBase
				{
					OFFSET -0.465251 -6.961702 -10.249644
					CHANNELS 3 Xrotation Yrotation Zrotation
					End Site
					{
						OFFSET -0.959344 -0.686551 -9.361076
					}
				}
			}
		}
	}
	JOINT mixamorig_Spine
	{
		OFFSET -0.012521 9.659492 0.152576
		CHANNELS 3 Xrotation Yrotation Zrotation
		JOINT mixamorig_Spine1
		{
			OFFSET 0.013316 9.940590 -0.620916
			CHANNELS 3 Xrotation Yrotation Zrotation
			JOINT mixamorig_Spine2
			{
				OFFSET -0.024142 10.082199 -0.544315
				CHANNELS 3 Xrotation Yrotation Zrotation
				JOINT mixamorig_Neck
				{
					OFFSET -0.280692 18.101685 -1.792333
					CHANNELS 3 Xrotation Yrotation Zrotation
					JOINT mixamorig_Head
					{
						OFFSET -0.018573 9.067642 0.460133
						CHANNELS 3 Xrotation Yrotation Zrotation
						End Site
						{
							OFFSET 0.158257 16.422226 3.010605
						}
					}
				}
				JOINT mixamorig_RightShoulder
				{
					OFFSET -4.418977 12.360168 -1.870196
					CHANNELS 3 Xrotation Yrotation Zrotation
					JOINT mixamorig_RightArm
					{
						OFFSET -0.840364 -0.706100 9.418602
						CHANNELS 3 Xrotation Yrotation Zrotation
						JOINT mixamorig_RightForeArm
						{
							OFFSET -2.498498 0.041534 25.943676
							CHANNELS 3 Xrotation Yrotation Zrotation
							JOINT mixamorig_RightHand
							{
								OFFSET -2.575367 0.795197 26.809452
								CHANNELS 3 Xrotation Yrotation Zrotation
								JOINT mixamorig_RightHandIndex1
								{
									OFFSET 3.136251 -0.538528 8.955254
									CHANNELS 3 Xrotation Yrotation Zrotation
									JOINT mixamorig_RightHandIndex2
									{
										OFFSET 0.051750 0.018234 3.880755
										CHANNELS 3 Xrotation Yrotation Zrotation
										JOINT mixamorig_RightHandIndex3
										{
											OFFSET 0.159386 -0.111511 2.528431
											CHANNELS 3 Xrotation Yrotation Zrotation
											End Site
											{
												OFFSET -0.186133 -0.129547 2.317834
											}
										}
									}
								}
								JOINT mixamorig_RightHandThumb1
								{
									OFFSET 3.146857 -1.651413 2.139514
									CHANNELS 3 Xrotation Yrotation Zrotation
									JOINT mixamorig_RightHandThumb2
									{
										OFFSET 0.227379 -1.950211 3.563250
										CHANNELS 3 Xrotation Yrotation Zrotation
										JOINT mixamorig_RightHandThumb3
										{
											OFFSET -0.284211 -0.956070 2.684949
											CHANNELS 3 Xrotation Yrotation Zrotation
											End Site
											{
												OFFSET -0.050027 -1.039322 2.580839
											}
										}
									}
								}
								JOINT mixamorig_RightHandMiddle1
								{
									OFFSET 0.842868 0.059799 9.204017
									CHANNELS 3 Xrotation Yrotation Zrotation
									JOINT mixamorig_RightHandMiddle2
									{
										OFFSET 0.007599 0.118408 3.598334
										CHANNELS 3 Xrotation Yrotation Zrotation
										JOINT mixamorig_RightHandMiddle3
										{
											OFFSET -0.157197 -0.125458 2.928855
											CHANNELS 3 Xrotation Yrotation Zrotation
											End Site
											{
												OFFSET 0.172696 -0.014359 2.626183
											}
										}
									}
								}
								JOINT mixamorig_RightHandRing1
								{
									OFFSET -1.001290 0.004471 8.712891
									CHANNELS 3 Xrotation Yrotation Zrotation
									JOINT mixamorig_RightHandRing2
									{
										OFFSET -0.114342 0.268219 2.619466
										CHANNELS 3 Xrotation Yrotation Zrotation
										JOINT mixamorig_RightHandRing3
										{
											OFFSET 0.155752 0.013962 2.934787
											CHANNELS 3 Xrotation Yrotation Zrotation
											End Site
											{
												OFFSET -0.022682 -0.334305 2.395091
											}
										}
									}
								}
								JOINT mixamorig_RightHandPinky1
								{
									OFFSET -2.870745 -0.520309 8.239086
									CHANNELS 3 Xrotation Yrotation Zrotation
									JOINT mixamorig_RightHandPinky2
									{
										OFFSET -0.064124 0.097565 3.353874
										CHANNELS 3 Xrotation Yrotation Zrotation
										JOINT mixamorig_RightHandPinky3
										{
											OFFSET 0.054191 -0.056305 1.657426
											CHANNELS 3 Xrotation Yrotation Zrotation
											End Site
											{
												OFFSET 0.034473 0.045517 1.902615
											}
										}
									}
								}
							}
						}
					}
				}
				JOINT mixamorig_LeftShoulder
				{
					OFFSET 4.067368 12.365417 -1.818083
					CHANNELS 3 Xrotation Yrotation Zrotation
					JOINT mixamorig_LeftArm
					{
						OFFSET 0.880652 -0.717896 9.769979
						CHANNELS 3 Xrotation Yrotation Zrotation
						JOINT mixamorig_LeftForeArm
						{
							OFFSET 2.551281 -0.093887 25.986422
							CHANNELS 3 Xrotation Yrotation Zrotation
							JOINT mixamorig_LeftHand
							{
								OFFSET 2.550158 0.834869 25.953165
								CHANNELS 3 Xrotation Yrotation Zrotation
								JOINT mixamorig_LeftHandIndex1
								{
									OFFSET -3.091449 -0.508453 8.774550
									CHANNELS 3 Xrotation Yrotation Zrotation
									JOINT mixamorig_LeftHandIndex2
									{
										OFFSET 0.036697 0.078873 3.768008
										CHANNELS 3 Xrotation Yrotation Zrotation
										JOINT mixamorig_LeftHandIndex3
										{
											OFFSET -0.146443 -0.119202 2.548758
											CHANNELS 3 Xrotation Yrotation Zrotation
											End Site
											{
												OFFSET 0.171421 0.029297 2.617404
											}
										}
									}
								}
								JOINT mixamorig_LeftHandThumb1
								{
									OFFSET -3.148789 -1.646713 2.206965
									CHANNELS 3 Xrotation Yrotation Zrotation
									JOINT mixamorig_LeftHandThumb2
									{
										OFFSET 0.080562 -1.997971 3.556270
										CHANNELS 3 Xrotation Yrotation Zrotation
										JOINT mixamorig_LeftHandThumb3
										{
											OFFSET 0.511188 -1.178329 2.869402
											CHANNELS 3 Xrotation Yrotation Zrotation
											End Site
											{
												OFFSET -0.395684 -1.027771 2.132432
											}
										}
									}
								}
								JOINT mixamorig_LeftHandMiddle1
								{
									OFFSET -0.779669 -0.015396 9.112029
									CHANNELS 3 Xrotation Yrotation Zrotation
									JOINT mixamorig_LeftHandMiddle2
									{
										OFFSET 0.052194 -0.112549 3.389368
										CHANNELS 3 Xrotation Yrotation Zrotation
										JOINT mixamorig_LeftHandMiddle3
										{
											OFFSET 0.178288 -0.162537 3.259809
											CHANNELS 3 Xrotation Yrotation Zrotation
											End Site
											{
												OFFSET -0.168278 0.311600 2.538658
											}
										}
									}
								}
								JOINT mixamorig_LeftHandRing1
								{
									OFFSET 1.087882 0.018982 8.604859
									CHANNELS 3 Xrotation Yrotation Zrotation
									JOINT mixamorig_LeftHandRing2
									{
										OFFSET 0.149309 0.141083 2.758817
										CHANNELS 3 Xrotation Yrotation Zrotation
										JOINT mixamorig_LeftHandRing3
										{
											OFFSET -0.068528 -0.036240 2.975783
											CHANNELS 3 Xrotation Yrotation Zrotation
											End Site
											{
												OFFSET -0.030775 -0.086090 2.514544
											}
										}
									}
								}
								JOINT mixamorig_LeftHandPinky1
								{
									OFFSET 2.960986 -0.570038 8.064888
									CHANNELS 3 Xrotation Yrotation Zrotation
									JOINT mixamorig_LeftHandPinky2
									{
										OFFSET 0.094121 0.094238 2.893586
										CHANNELS 3 Xrotation Yrotation Zrotation
										JOINT mixamorig_LeftHandPinky3
										{
											OFFSET -0.031188 0.050095 1.974020
											CHANNELS 3 Xrotation Yrotation Zrotation
											End Site
											{
												OFFSET -0.027014 0.187729 1.913422
											}
										}
									}
								}
							}
						}
					}
				}
			}
		}
	}
}
MOTION
Frames: 4
Frame Time: 0.03333333333333333
-6.874505 -4.330676 0.169732 0.000000 0.890477 -0.000138 -176.511956 83.239730 174.358380 -15.074226 70.326394 17.523606 1.630494 11.475415 3.858921 -1.944274 3.981799 0.667954 -1.166113 7.235887 -2.434429 -174.563213 -23.728180 177.269661 3.442457 -38.897554 -2.277391 -1.512510 -0.288013 3.404261 1.268326 1.330194 -0.750990 4.927378 -1.727271 -0.155113 1.514245 1.019018 -0.930180 6.234675 -6.215679 -0.020811 1.024131 1.197568 1.808320 96.896871 -82.475107 96.904228 62.655805 22.101226 -40.193611 -137.013130 48.375453 161.515138 -18.651214 -19.604580 -35.536255 56.143004 -12.467924 -0.995652 -3.731067 -3.308386 -0.780267 -1.687149 5.952934 6.927686 13.483055 22.877829 -18.924244 -6.086161 -11.885941 10.765690 -4.804400 -56.147380 -38.562370 46.659277 -3.526187 2.968396 64.060512 -8.288352 6.088063 34.201669 -10.102228 18.867397 44.011152 0.392539 -1.918169 58.541633 2.215353 -4.131037 51.235823 5.411033 -14.574072 61.409202 6.253376 5.961400 68.885357 1.366433 -0.397667 33.178083 4.207356 0.197716 41.541616 82.146201 -35.696290 57.280646 -21.158796 48.629990 40.503170 -66.872348 72.889361 0.708550 -9.522099 -45.910668 11.718483 -0.429837 1.426852 0.142902 4.009163 -0.807353 4.723547 -3.787488 -2.826734 -17.106916 -3.584010 -48.286994 -7.720617 3.482404 1.154199 -4.404364 28.649487 6.570893 3.882820 -2.202878 -0.727870 2.594220 -3.617767 2.260826 15.893029 4.628343 2.479456 1.255898 -4.441547 2.801662 3.195089 1.180147 1.227516 1.361017 -1.050634 -1.592378 0.223941 -2.751714 -0.223941 2.867590 0.074485 -1.607358 12.352805 1.393112 4.344234 
-6.874505 -4.330676 0.169732 0.000000 0.890477 -0.000138 -176.511956 83.239730 174.358380 -15.073597 70.318498 17.517550 1.621247 11.459422 3.865579 -1.951094 3.969170 0.668291 -1.166113 7.235887 -2.434429 -174.571455 -23.739317 177.235546 3.436924 -38.901001 -2.279272 -1.504102 -0.306876 3.418698 1.268326 1.330194 -0.750990 4.927378 -1.727271 -0.155113 1.508505 1.228112 -0.932882 6.376524 -6.204508 -0.002920 1.116253 0.246903 0.744662 96.241920 -82.489302 96.253477 64.403671 20.970701 -40.835579 -137.110723 49.404962 157.268206 -24.288867 -19.025266 -51.172455 60.356941 -13.601526 -1.000526 -4.383991 -3.524882 -0.823436 -1.373078 6.055359 9.404202 20.610811 18.833428 -29.606857 -6.948685 -15.692860 11.197434 -16.992104 -66.041660 -55.221600 55.577246 -4.807570 4.338663 76.461293 -8.612923 8.523941 43.828014 -10.867076 24.056620 53.650656 -1.193453 -2.323405 69.800980 2.392974 -4.702375 51.235823 5.411033 -14.574072 74.815909 6.949096 6.813308 85.899646 1.562443 -0.481761 39.319567 4.521784 -0.176945 41.541616 82.146201 -35.696290 57.280646 -21.158796 48.629990 40.503170 -66.872348 72.889361 0.708550 -9.522099 -45.910668 11.718483 -0.429837 1.426852 0.142902 4.009163 -0.807353 4.723547 -3.787488 -2.826734 -17.106916 -3.584010 -48.286994 -7.720617 3.482404 1.154199 -4.404364 28.649487 6.570893 3.882820 -2.202878 -0.727870 2.594220 -3.617767 2.260826 15.893029 4.628343 2.479456 1.255898 -4.441547 2.801662 3.195089 1.180147 1.227516 1.361017 -1.050634 -1.592378 0.223941 -2.751714 -0.223941 2.867590 0.074485 -1.607358 12.352805 1.393112 4.344234 
-6.874505 -4.330676 0.169732 0.000000 0.890477 -0.000138 -176.511956 83.239730 174.358380 -14.919806 70.325910 17.370063 1.629640 11.463632 3.853164 -1.984989 3.965721 0.685566 -1.166113 7.235887 -2.434429 -174.565434 -23.763904 177.247964 3.440595 -38.919993 -2.291047 -1.505981 -0.269583 3.384798 1.268326 1.330194 -0.750990 4.927378 -1.727271 -0.155113 1.502775 1.437198 -0.935563 6.257667 -6.212165 -0.015666 0.857182 -0.096248 0.307063 95.585366 -82.502568 95.601120 64.164484 22.036667 -40.307882 -137.085997 50.431536 152.928945 -25.453032 -18.510233 -53.021966 60.356941 -13.601526 -1.000526 -4.383991 -3.524882 -0.823436 2.856064 4.496774 9.477359 23.234290 16.836763 -33.745083 -7.798786 -19.504744 11.577130 -43.854316 -72.834884 -86.404652 64.539236 -5.860421 5.894465 88.868094 -8.412130 10.973906 52.710925 -10.805057 28.882904 63.288704 -2.824533 -2.456825 81.065017 2.455354 -5.297491 51.235823 5.411033 -14.574072 88.237898 7.822496 7.480257 102.916460 1.725261 -0.619574 45.464572 4.794257 -0.583396 41.541616 82.146201 -35.696290 57.280646 -21.158796 48.629990 40.503170 -66.872348 72.889361 0.708550 -9.522099 -45.910668 11.718483 -0.429837 1.426852 0.142902 4.009163 -0.807353 4.723547 -3.787488 -2.826734 -17.106916 -3.584010 -48.286994 -7.720617 3.482404 1.154199 -4.404364 28.649487 6.570893 3.882820 -2.202878 -0.727870 2.594220 -3.617767 2.260826 15.893029 4.628343 2.479456 1.255898 -4.441547 2.801662 3.195089 1.180147 1.227516 1.361017 -1.050634 -1.592378 0.223941 -2.751714 -0.223941 2.867590 0.074485 -1.607358 12.352805 1.393112 4.344234 
-6.874505 -4.330676 0.169732 0.000000 0.890477 -0.000138 -176.511956 83.239730 174.358380 -14.716515 70.316105 17.159790 1.640940 11.459754 3.848306 -2.030445 3.942975 0.704768 -1.166113 7.235887 -2.434429 -174.582858 -23.796816 177.245975 3.467689 -38.950774 -2.295940 -1.481961 -0.236714 3.342577 1.268326 1.330194 -0.750990 4.927378 -1.727271 -0.155113 1.411303 1.301705 -0.878410 5.980840 -6.230365 -0.046950 0.393674 -0.071955 0.246529 94.927371 -82.514901 94.947323 63.913964 23.100946 -39.772188 -137.012739 51.021313 150.373605 -22.326758 -18.672910 -41.186577 61.256592 -13.787663 -0.404191 -4.383991 -3.524882 -0.823436 9.668794 1.671010 8.190028 23.234290 16.836763 -33.745083 -8.136526 -21.028972 11.714326 -44.345012 -72.885772 -86.952510 72.326557 -6.566020 7.362003 101.242820 -7.695949 13.320628 52.710925 -10.805057 28.882904 72.942836 -4.454486 -2.314040 85.380344 2.533567 -5.600261 51.235823 5.411033 -14.574072 92.289739 7.274803 7.801245 116.250280 1.820249 -0.757396 51.612813 5.021594 -1.016969 41.541616 82.146201 -35.696290 57.280646 -21.158796 48.629990 40.503170 -66.872348 72.889361 0.708550 -9.522099 -45.910668 11.718483 -0.429837 1.426852 0.142902 4.009163 -0.807353 4.723547 -3.787488 -2.826734 -17.106916 -3.584010 -48.286994 -7.720617 3.482404 1.154199 -4.404364 28.649487 6.570893 3.882820 -2.202878 -0.727870 2.594220 -3.617767 2.260826 15.893029 4.628343 2.479456 1.255898 -4.441547 2.801662 3.195089 1.180147 1.227516 1.361017 -1.050634 -1.592378 0.223941 -2.751714 -0.223941 2.867590 0.074485 -1.607358 12.352805 1.393112 4.344234 
